<svg xmlns="http://www.w3.org/2000/svg" viewBox="0 0 512 512">
  <rect width="512" height="512" rx="100" fill="#030712"/>
  <rect x="40" y="40" width="120" height="120" rx="16" fill="#0ea5e9"/>
  <rect x="160" y="40" width="60" height="60" rx="8" fill="#0ea5e9"/>
  <rect x="40" y="160" width="60" height="60" rx="8" fill="#0ea5e9"/>
  <rect x="40" y="280" width="60" height="60" rx="8" fill="#0ea5e9"/>
  <rect x="160" y="160" width="60" height="60" rx="8" fill="#0369a1"/>
  <rect x="280" y="40" width="120" height="120" rx="16" fill="#0ea5e9"/>
  <rect x="400" y="40" width="72" height="72" rx="8" fill="#0ea5e9"/>
  <rect x="280" y="160" width="60" height="60" rx="8" fill="#0369a1"/>
  <rect x="340" y="160" width="60" height="60" rx="8" fill="#0ea5e9"/>
  <rect x="400" y="160" width="72" height="72" rx="8" fill="#0369a1"/>
  <rect x="280" y="280" width="120" height="120" rx="16" fill="#0ea5e9"/>
  <rect x="400" y="280" width="72" height="72" rx="8" fill="#0369a1"/>
  <rect x="40" y="400" width="432" height="72" rx="12" fill="#0ea5e9" opacity="0.3"/>
  <text x="256" y="448" text-anchor="middle" fill="white" font-size="28" font-weight="bold" font-family="Arial">LabGate</text>
</svg>
